Coordinates
version=1
nRows=11
nColumns=48
inDegrees=yes

Units are S.I. units (second, meters, Newtons, ...)
Angles are in degrees.

endheader
time	pelvis_tilt	pelvis_list	pelvis_rotation	pelvis_tx	pelvis_ty	pelvis_tz	hip_flexion_r	hip_adduction_r	hip_rotation_r	knee_angle_r	knee_adduction_r	knee_rotation_r	knee_anterior_posterior_r	knee_inferior_superior_r	knee_medial_lateral_r	ankle_angle_r	subtalar_angle_r	mtp_angle_r	hip_flexion_l	hip_adduction_l	hip_rotation_l	knee_angle_l	knee_adduction_l	knee_rotation_l	knee_anterior_posterior_l	knee_inferior_superior_l	knee_medial_lateral_l	ankle_angle_l	subtalar_angle_l	mtp_angle_l	lumbar_extension	lumbar_bending	lumbar_rotation	arm_flex_r	arm_add_r	arm_rot_r	elbow_flex_r	pro_sup_r	wrist_flex_r	wrist_dev_r	arm_flex_l	arm_add_l	arm_rot_l	elbow_flex_l	pro_sup_l	wrist_flex_l	wrist_dev_l
      1.47000000	     10.70114921	     19.55379766	     -5.35682575	     -0.59159025	      1.16105028	      0.20919802	      5.07601119	    -21.07072978	     -7.86831455	    -14.25476671	      0.98440452	      4.11446608	     -0.00441073	     -0.40000000	      0.00000000	    -20.23342050	      0.00000000	      0.00000000	     36.94471246	      9.74554447	    -26.67817453	   -119.96390874	      0.98440452	      4.11446608	      0.00000000	     -0.40000000	      0.00000000	    -17.55921227	      0.00000000	      0.00000000	    -34.17178246	    -17.32618624	     -4.08399142	    -11.46409418	    -23.41150343	     17.84702664	     74.66776515	     86.83885766	      0.00000000	      0.00000000	    -19.80021394	    -29.33450808	    -27.64888536	    125.70121694	     83.39513678	      0.00000000	      0.00000000
      1.48000000	     10.89869364	     19.53766284	     -5.08399756	     -0.58014031	      1.15647928	      0.20860237	      5.79915863	    -20.84404351	     -8.33645577	    -12.81589264	      0.98440452	      4.11446608	     -0.00576665	     -0.40000000	      0.00000000	    -20.56042869	      0.00000000	      0.00000000	     35.82983548	     10.14712777	    -26.81266621	   -119.96456926	      0.98440452	      4.11446608	      0.00000000	     -0.40000000	      0.00000000	    -17.99309700	      0.00000000	      0.00000000	    -34.59675756	    -17.20053982	     -4.67891669	    -13.46949412	    -23.45543603	     15.69953379	     74.09480751	     86.94805842	      0.00000000	      0.00000000	    -20.12832843	    -29.68248051	    -27.19271566	    124.28091889	     82.34135274	      0.00000000	      0.00000000
      1.49000000	     11.08870392	     19.42740862	     -4.59520607	     -0.56852997	      1.15087271	      0.20795340	      6.24083789	    -20.50000854	     -8.76140129	    -11.28351516	      0.98440452	      4.11446608	     -0.00711675	     -0.40000000	      0.00000000	    -21.12282226	      0.00000000	      0.00000000	     34.76244469	     10.51441577	    -26.71979339	   -119.96492687	      0.98440452	      4.11446608	      0.00000000	     -0.40000000	      0.00000000	    -18.29019971	      0.00000000	      0.00000000	    -35.02059078	    -16.89089782	     -5.47058695	    -15.30683991	    -23.59804034	     13.93107568	     73.54071417	     87.00487770	      0.00000000	      0.00000000	    -20.56614217	    -30.06592931	    -26.82096162	    122.88992937	     81.27272569	      0.00000000	      0.00000000
      1.50000000	     11.43982377	     19.22245782	     -3.98277759	     -0.55678421	      1.14439161	      0.20725724	      6.33112089	    -20.09810694	     -9.58717077	     -9.88088613	      0.98440452	      4.11446608	     -0.00826079	     -0.40000000	      0.00000000	    -22.01665638	      0.00000000	      0.00000000	     33.57268984	     10.84429166	    -26.38040672	   -119.96522748	      0.98440452	      4.11446608	      0.00000000	     -0.40000000	      0.00000000	    -18.50606528	      0.00000000	      0.00000000	    -35.59468133	    -16.40099043	     -6.21431243	    -17.31361519	    -23.95853432	     12.26689122	     73.33057343	     87.15447262	      0.00000000	      0.00000000	    -20.80000682	    -30.79308489	    -26.00979516	    121.44085135	     79.79693655	      0.00000000	      0.00000000
      1.51000000	     11.71207256	     19.13921455	     -3.25066100	     -0.54517939	      1.13674176	      0.20638191	      6.49754665	    -19.87994097	    -10.56907687	     -8.79620813	      0.98440452	      4.11446608	     -0.00916541	     -0.40000000	      0.00000000	    -23.42353822	      0.00000000	      0.00000000	     32.63376784	     11.27070110	    -25.98684151	   -119.96539281	      0.98440452	      4.11446608	      0.00000000	     -0.40000000	      0.00000000	    -18.51354315	      0.00000000	      0.00000000	    -36.11347135	    -15.98651224	     -7.28469428	    -19.16684308	    -24.30322331	     10.74553378	     73.16628660	     87.07250429	      0.00000000	      0.00000000	    -21.27341584	    -31.35552451	    -25.57111497	    119.99558688	     78.60912552	      0.00000000	      0.00000000
      1.52000000	     11.95090690	     18.96511284	     -2.41189055	     -0.53345624	      1.12792346	      0.20525393	      6.66592955	    -19.63322827	    -11.71300618	     -8.11136869	      0.98440452	      4.11446608	     -0.00986059	     -0.40000000	      0.00000000	    -25.41434717	      0.00000000	      0.00000000	     31.84788758	     11.64590932	    -25.47176156	   -119.96549765	      0.98440452	      4.11446608	      0.00000000	     -0.40000000	      0.00000000	    -18.30669516	      0.00000000	      0.00000000	    -36.52544817	    -15.40751098	     -8.16289886	    -21.23917458	    -24.74773564	      9.16347993	     73.20241619	     86.87625055	      0.00000000	      0.00000000	    -21.42864959	    -32.00361329	    -24.57544979	    118.53419408	     77.22786682	      0.00000000	      0.00000000
      1.53000000	     12.26409514	     18.69986484	     -1.45568089	     -0.52162432	      1.11814249	      0.20426151	      6.73528851	    -19.34682388	    -12.94186802	     -7.92774984	      0.98440452	      4.11446608	     -0.01016780	     -0.40000000	      0.00000000	    -27.31465529	      0.00000000	      0.00000000	     31.04055941	     11.91812845	    -24.71731789	   -119.96544423	      0.98440452	      4.11446608	      0.00000000	     -0.40000000	      0.00000000	    -18.03344860	      0.00000000	      0.00000000	    -37.01054668	    -14.72364134	     -9.09922996	    -23.28597286	    -25.05905121	      7.47958871	     73.23640243	     86.56058020	      0.00000000	      0.00000000	    -21.63883803	    -32.69035522	    -23.67849573	    117.05295527	     75.76420089	      0.00000000	      0.00000000
      1.54000000	     12.72263360	     18.33294432	     -0.43601606	     -0.50964347	      1.10744924	      0.20322273	      6.54858913	    -19.00392460	    -14.20291254	     -8.07481703	      0.98440452	      4.11446608	     -0.01036649	     -0.40000000	      0.00000000	    -29.25422508	      0.00000000	      0.00000000	     30.18241094	     12.06923790	    -23.79188901	   -119.96501448	      0.98440452	      4.11446608	      0.00000000	     -0.40000000	      0.00000000	    -18.02086997	      0.00000000	      0.00000000	    -37.55700339	    -13.88682746	     -9.89523135	    -25.49576551	    -25.44030856	      5.65743987	     73.39539934	     86.36215223	      0.00000000	      0.00000000	    -21.53794477	    -33.32556632	    -22.48419999	    115.57041257	     72.86617044	      0.00000000	      0.00000000
      1.55000000	     12.98898764	     18.14630790	      0.71334476	     -0.49805375	      1.09542352	      0.20167988	      6.68390817	    -18.98061158	    -15.10258616	     -8.79457317	      0.98440452	      4.11446608	     -0.01086895	     -0.40000000	      0.00000000	    -31.11910094	      0.00000000	      0.00000000	     29.80518632	     12.45188139	    -22.87570088	   -119.96445258	      0.98440452	      4.11446608	      0.00000000	     -0.40000000	      0.00000000	    -17.68992264	      0.00000000	      0.00000000	    -37.92168893	    -13.15438306	    -10.81519168	    -27.64529898	    -25.82499356	      3.95322437	     73.58675938	     85.70427831	      0.00000000	      0.00000000	    -21.47597531	    -34.35593045	    -21.02340586	    113.99494230	     71.27587741	      0.00000000	      0.00000000
      1.56000000	     13.27876689	     17.91510614	      2.01187651	     -0.48625391	      1.08243233	      0.19977280	      6.64320813	    -18.93247818	    -15.45551087	     -9.76990101	      0.98440452	      4.11446608	     -0.01140874	     -0.40000000	      0.00000000	    -32.59843827	      0.00000000	      0.00000000	     29.53924267	     12.87500972	    -21.76826925	   -119.96354902	      0.98440452	      4.11446608	      0.00000000	     -0.40000000	      0.00000000	    -17.22209786	      0.00000000	      0.00000000	    -38.25168930	    -12.29015938	    -11.71764660	    -29.73294646	    -26.24544430	      2.39868537	     73.56292743	     84.70321959	      0.00000000	      0.00000000	    -21.15188470	    -35.21691656	    -19.29860731	    112.37384477	     68.87385338	      0.00000000	      0.00000000
      1.57000000	     13.31767262	     17.90161203	      3.27744231	     -0.47496656	      1.06803384	      0.19776537	      6.90424128	    -19.13437274	    -15.04471991	    -11.04473626	      0.98440452	      4.11446608	     -0.01151321	     -0.40000000	      0.00000000	    -33.60945809	      0.00000000	      0.00000000	     29.79034380	     13.45322884	    -20.83276735	   -119.96282982	      0.98440452	      4.11446608	      0.00000000	     -0.40000000	      0.00000000	    -16.41393906	      0.00000000	      0.00000000	    -38.33206669	    -11.69921105	    -12.63846941	    -31.65175299	    -26.78083581	      1.08637528	     73.39040463	     83.28740044	      0.00000000	      0.00000000	    -20.66222635	    -35.86785354	    -17.67928103	    110.64694535	     67.12109587	      0.00000000	      0.00000000
